<svg width="7.3678in" height="5.2369in" version="1.1" viewBox="0 0 663.1 471.32" xml:space="preserve" xmlns="http://www.w3.org/2000/svg">
  <style>
  .Ni {
    stroke-dasharray: 920;
    stroke-dashoffset: 920;
  }
  .i {
    stroke-dasharray: 130;
    stroke-dashoffset: 130;
  }
  .l {
    stroke-dasharray: 300;
    stroke-dashoffset: 300;
  }
  .e {
    stroke-dasharray: 280;
    stroke-dashoffset: 280;
  }
  .a {
    stroke-dasharray: 390;
    stroke-dashoffset: 390;
  }
  .n {
    stroke-dasharray: 450;
    stroke-dashoffset: 450;
  }
  .e2 {
    stroke-dasharray: 280;
    stroke-dashoffset: 280;
  }
  ._e {
    stroke-dasharray: 130;
    stroke-dashoffset: 130;
  }
  .Ni, .i, .l, .e, .a, .n, .e2, ._e {
    animation: .5s ease-in-out both draw;
  }
  .i { animation-delay: .5s; animation-duration: .2s; }
  .l { animation-delay: .7s; animation-duration: .3s; }
  .e { animation-delay: 1s; animation-duration: .4s; }
  .a { animation-delay: 1.4s; animation-duration: .4s; }
  .n { animation-delay: 1.8s; animation-duration: .4s; }
  .e2 { animation-delay: 2.2s; animation-duration: .4s; }
  ._e { animation-delay: 2.8s; animation-duration: .1s; }

  @keyframes draw { to { stroke-dashoffset: 0; } }
  </style>
  <clipPath id="clipNi">
    <!-- N --><path d="m196.23 50.003c-0.213-0.0063-0.426-0.0013-0.639 0.0137-2.668 0.1863-5.497 1.9725-8.487 5.3588 0.115 5.0237 0.132 10.865 0.047 17.522-0.084 6.6575-0.705 14.965-1.862 24.925-1.156 9.9597-3.312 22.438-6.466 37.432-3.154 14.995-7.565 32.727-13.232 53.201-5.669 20.475-12.112 41.877-19.329 64.205-7.216 22.33-14.428 42.841-21.634 61.54-7.207 18.697-14.554 34.073-22.036 46.126-7.4813 12.053-13.802 20.128-18.962 24.223-1.2287 0.976-2.2338 1.855-3.045 2.648-0.325-1.063-0.225-0.725-0.6638-2.164-1.68-5.511-3.0825-12.751-4.205-21.717-1.1225-8.965-1.8187-20.322-2.09-34.071-0.2712-13.75-0.0912-28.923 0.5413-45.516 0.6312-16.594 1.6437-33.244 3.035-49.949 1.3912-16.707 3.22-30.241 5.4888-40.607 2.2674-10.364 1.375-18.079-2.6788-23.146-4.0525-5.066-8.42-6.005-13.099-2.816-4.6799 3.189-6.995 7.181-6.9437 11.979 0.0513 4.796-0.0525 10.781-0.315 17.955-0.2613 7.174-0.9287 15.957-2.0013 26.35-1.0725 10.391-3.2437 23.526-6.5162 39.4-3.2713 15.874-7.1288 32.333-11.574 49.382-4.4449 17.049-10.016 33.869-16.715 50.462-6.6974 16.592-11.265 28.259-13.701 35.002-2.435 6.743-5.485 13.411-9.1462 20.011 0.0525 15.468 5.5225 17.709 16.412 6.725 2.02-7.272 4.3275-14.432 6.9213-21.482s5.8725-19.371 9.8337-36.962c3.9626-17.589 8.105-34.988 12.429-52.197 4.3225-17.209 8.1425-33.779 11.464-49.712 3.3213-15.934 6.2313-29.022 8.725-39.263 0.8525-3.501 1.6238-6.529 2.4088-9.634 0.3762 5.569 0.615 11.647 0.705 18.277 0.2263 16.726 0.0137 33.406-0.635 50.037-0.6488 16.631-1.0975 31.867-1.3475 45.709s-0.575 25.385-0.9713 34.631c-0.3949 9.246-0.8187 16.739-1.2725 22.476-0.455 5.739-0.0075 11.729 1.3413 17.973 1.3487 6.245 6.0837 8.671 14.202 7.281 8.12-1.389 14.108-6.005 17.964-13.844 3.8553-7.839 8.5163-18.59 13.982-32.257 5.467-13.667 11.444-30.068 17.935-49.201 6.492-19.134 13.218-39.925 20.177-62.377 6.957-22.452 13.361-43.915 19.212-64.391s10.726-38.166 14.627-53.072c3.902-14.905 7.148-27.265 9.737-37.077 2.588-9.8113 4.822-18.016 6.702-24.619 1.881-6.6012 3.389-12.449 4.524-17.539-2.715-4.7363-5.664-7.1463-8.847-7.2325z"/>
  </clipPath>
  <clipPath id="clipI">
    <!-- i --><path d="m171.74 295.04c-2.93-0.084-6.397 1.509-10.401 4.785-1.308 3.655-2.615 7.055-3.924 10.2-1.309 3.143-2.423 8.271-3.348 15.386-0.923 7.115-2.227 13.858-3.909 20.23-1.683 6.374-3.094 12.499-4.233 18.375s-1.884 11.397-2.236 16.562c-0.353 5.167 0.939 10.378 3.875 15.634s7.558 7.945 13.867 8.066c6.308 0.122 11.791-1.295 16.451-4.245 4.803-10.468 2.028-17.627-8.326-21.48-2.846 0.627-4.543 1.081-5.277 1.393-0.155-0.587-0.042-0.1-0.35-1.295-0.773-2.999-0.923-7.126-0.449-12.385s1.321-10.899 2.541-16.921c1.219-6.023 3.396-12.133 6.531-18.33 3.134-6.199 5.087-10.952 5.856-14.259 0.769-3.305 1.681-6.833 2.738-10.582-1.99-7.299-5.125-11.011-9.406-11.134z"/>
  </clipPath>
  <clipPath id="clipL">
    <!-- l --><path d="m279.9 133.4c12.404-3.518 19.014 1.094 19.829 13.831-0.88 2.628-3.297 5.989-7.25 10.086-3.954 4.097-9.863 11.154-17.725 21.172-7.864 10.017-15.843 22.053-23.937 36.108-8.093 14.055-15.525 29.684-22.292 46.887-6.767 17.202-11.736 33.152-14.904 47.851-3.167 14.697-4.535 28.332-4.101 40.906 0.435 12.573 2.73 21.083 6.888 25.529 4.156 4.447 9.092 8.522 14.806 12.226 5.166 10.185 1.925 14.805-9.723 13.863-6.336-4.272-11.246-10.489-14.731-18.655-3.485-8.165-5.194-18.986-5.129-32.458 0.066-13.474 2.003-27.695 5.81-42.665 3.808-14.97 8.895-31.265 15.263-48.885 6.366-17.621 13.218-33.825 20.555-48.613 7.337-14.787 13.565-28.061 18.682-39.823 5.119-11.763 8.819-20.474 11.1-26.135s4.568-9.403 6.859-11.225z"/>
  </clipPath>
  <clipPath id="clipE">
    <!-- e --><path d="m307.87 288.48c-18.86 2.332-34.953 15.263-46.418 29.833-6.213 7.805-10.401 17.111-15.076 25.628-1.674 10.506-5.775 21.451-2.557 32.287 0.926 9.547 9.958 15.85 19.171 15.29 19.084 0.649 35.797-10.321 54.077-14.091 2.117-1.505 8.819-6.05 2.377-6.243-8.745-0.823-17.116 3.999-25.952 4.458-11.104 0.766-23.016 4.309-33.835 0.43-7.151-3.356-5.496-12.699-5.041-19.036 17.105 4.96 32.269-8.22 46.041-16.129 12.625-8.415 27.411-17.373 32.662-32.389 1.435-14.374-13.555-20.185-25.449-20.038zm4.236 19.916c6.198 1.765-0.363 7.924-2.971 9.416-11.701 9.384-25.797 19.108-41.431 18.486-7.135 0.433-2.291-3.603 0.154-6.378 9.746-8.702 21.495-16.709 34.68-18.625 2.975-0.279 5.504 0.79 7.044-2.101 0.751-0.458 1.635-0.8 2.524-0.798z"/>
  </clipPath>
  <clipPath id="clipA">
    <!-- a --><path d="m430.99 284.13c-10.435-0.325-12.301 11.55-13.891 19.287-4.273 15.398-10.328 30.447-14.805 45.639-12.55 14.517-30.934 25.22-50.464 25.274-3.831 2.994-4.614-4.7-4.478-7.761 3.805-14.494 13.955-26.539 23.547-37.704 7.612-8.349 16.822-15.488 27.775-18.685 5.607-3.777 12.324-9.63 9.101-17.197-6.28-9.471-19.503-5.421-25.797 1.958-13.551 14.028-24.322 30.554-35.033 46.789-5.531 10.935-13.145 21.333-16.101 33.25-0.882 9.863 6.847 20.447 17.495 19.089 22.095 0.753 37.758-17.382 52.747-30.864 1.614 13.048 11.928 23.224 24.544 26.107 4.456 1.552 9.839 4.562 13.082-0.692 4.689-4.435 0.907-13.572-5.525-13.157-7.47-2.526-14.927-6.365-20.902-11.425-3.104-5.144-2.4-11.946 2.409-15.686 9.937-14.302 19.87-29.1 27.871-44.695 3.352-6.335 3.099-18.237-5.996-19.127-1.838-0.339-3.713-0.435-5.579-0.4z"/>
  </clipPath>
  <clipPath id="clipN">
    <!-- n --><path d="m536.16 276.71c-11.838 2.307-17.587 14.762-26.159 21.984-13.64 16.371-26.179 34.086-41.841 48.888 1.632-11.533 5.815-22.372 9.861-33.14-0.232-3.179-2.226-6.292-1.353-9.623-1.894-6.143-9.361-9.604-14.31-4.383-2.736 2.158-2.893 6.435-6.002 8.576-1.73 9.258 0.199 19.043-2.415 28.33-1.186 10.943-4.575 22.153-3.57 33.058 4.834 5.421 14.937 6.091 20.757 1.806 4.857-6.654 6.2-15.381 10.815-22.325 10.479-20.281 25.855-38.876 46.129-49.84 3.629-1.82 7.69-1.14 6.63 3.756-0.094 18.388-5.723 36.138-11.982 53.216-3.708 12.158-3.045 27.847 8.447 35.964 16.079 13.171 37.883 5.544 56.001 2.215 15.232-3.883 30.953-6.987 45.611-12.325 2.208-1.44 6.13-4.836 1.123-4.66-9.56-0.293-18.452 5.218-27.946 6.613-18.999 5.031-40.323 6.455-58.582-1.848-5.172-3.665-13.356-6.834-12.198-14.675 0.473-19.693 10.161-37.125 17.034-55.057 2.872-9.38 8.468-22.79-1.558-30.006-4.169-3.221-9.011-6.614-14.492-6.524z"/>
  </clipPath>
  <clipPath id="clipE2">
    <!-- e --><path d="m634.98 289.89c-22.061 3.01-40.129 19.309-51.802 37.609-3.365 6.107-7.097 12.182-9.751 18.408-1.99 10.76-5.755 21.914-2.175 33.01 1.415 10.512 12.68 15.152 22.175 14.044 17.811-0.758 33.514-10.515 50.749-14.126 2.045-1.416 8.887-6.144 2.322-6.253-8.73-0.766-17.088 3.998-25.909 4.47-11.101 0.768-23.011 4.308-33.824 0.428-7.149-3.358-5.494-12.698-5.041-19.034 17.761 5.033 33.141-8.959 47.464-17.004 12.266-8.386 26.906-17.301 31.348-32.315 0.785-12.892-12.81-19.099-23.845-19.231-0.57-0.026-1.142-0.022-1.711-7e-3zm4.236 19.916c6.205 1.763-0.367 7.918-2.972 9.419-11.706 9.377-25.796 19.103-41.431 18.484-7.139 0.431-2.295-3.602 0.154-6.379 9.745-8.705 21.497-16.706 34.68-18.628 2.959-0.292 5.508 0.818 7.022-2.085 0.754-0.471 1.65-0.81 2.547-0.811z"/>
  </clipPath>
  <clipPath id="clip_E">
    <!-- _e --><path d="m399.21 189c-15.825 8.407-29.628 20.324-44.965 29.674-16.332 11.5-34.499 20.34-51.852 29.766-8.468 3.41-5.087 18.705 4.463 17.73 7.141 0.769 10.572-7.896 15.465-11.794 21.771-24.868 49.731-43.156 75.36-63.55 0.079-0.266 2.499-2.238 1.529-1.826z"/>
  </clipPath>
  <g fill="none" stroke="#000" stroke-width="28.125">
    <path class="Ni" clip-path="url(#clipNi)" d="m4.3814 433.89 40.06-123.6 29.626-145.7 1.169 247.15 19.714-21.81 43.08-105 50.78-177.49 8.34-60.001"/>
    <path class="i" clip-path="url(#clipI)" d="m181.67 386.87-15.97 7.2-12.59-5.22 6.08-40.02 15.07-55.43"/>
    <path class="l" clip-path="url(#clipL)" d="m295.93 129.84-75.35 141.54-16.47 91.86 12.69 25.99 13.78 16.9"/>
    <path class="e" clip-path="url(#clipE)" d="m260.97 346.34 14.31-0.2 38.51-22.55 11.66-15.49-13.38-10.1-38.68 15.85-13.55 16.97-7.76 16.65-3.06 27.39 11.34 9 53.49-11.7" stroke-linecap="round"/>
    <path class="a" clip-path="url(#clipA)" d="m406.95 285.95-30.66 26.44-30.58 48.24-2.43 23.92 33.11-6.09 28.83-22.1 28.22-60.52-8.25 4.09-24.1 63.28 42.95 27.21"/>
    <path class="n" clip-path="url(#clipN)" d="m469.5 294.18-11.47 82.73 92.3-104.58-30.48 114.03 83.45 13.35"/>
    <path class="e2" clip-path="url(#clipE2)" d="m589.05 349.46 16.17-2.84 38.78-24.4 4.99-17.05-14.62-6.43-38.09 21.08-16.66 30.24-1.46 25.93 14.28 10.75 54.06-14.17" stroke-linecap="round"/>
    <path class="_e" clip-path="url(#clip_E)" d="m296.41 265.77 109.32-82.02"/>
  </g>
  <path fill="none" stroke="none" d="m183.24 250.95c-6.799 0-10.198 3.398-10.198 10.198 0 6.798 3.399 10.198 10.198 10.198s10.199-3.4 10.199-10.198c0-6.8-3.4-10.198-10.199-10.198z">
    <animate attributeType="XML" attributeName="fill" from="none" to="#000" dur="0.01s" begin="2.6s" fill="freeze"/>
  </path>
</svg>
