<?xml version="1.0" encoding="UTF-8" standalone="no"?>
<!DOCTYPE svg PUBLIC "-//W3C//DTD SVG 1.1//EN" "http://www.w3.org/Graphics/SVG/1.1/DTD/svg11.dtd">
<svg width="100%" height="100%" viewBox="0 0 377 377" version="1.1" xmlns="http://www.w3.org/2000/svg" xmlns:xlink="http://www.w3.org/1999/xlink" xml:space="preserve" xmlns:serif="http://www.serif.com/" style="fill-rule:evenodd;clip-rule:evenodd;stroke-linejoin:round;stroke-miterlimit:2;">
    <g transform="matrix(1.0225,0,0,1.02711,-8.48143,-10.2199)">
        <g id="Calque1">
            <rect x="8.295" y="9.95" width="368.705" height="367.05" style="fill:rgb(0,0,17);"/>
        </g>
    </g>
    <g transform="matrix(0.892053,0,0,0.892053,25.8609,25.3597)">
        <g transform="matrix(0.876272,0,0,0.876272,-11.2919,46.5891)">
            <circle cx="292.178" cy="273.457" r="49.737" style="fill:rgb(138,125,250);"/>
        </g>
        <g id="path6164" transform="matrix(1.29992,0,0,1.29992,-186.89,-648.043)">
            <path d="M328.069,517.191C327.933,517.187 327.797,517.19 327.66,517.2C325.953,517.319 324.142,518.463 322.229,520.63C322.303,523.845 322.313,527.583 322.259,531.844C322.205,536.105 321.808,541.422 321.067,547.796C320.327,554.171 318.948,562.156 316.929,571.752C314.91,581.349 312.087,592.698 308.46,605.801C304.832,618.905 300.709,632.602 296.09,646.892C291.471,661.183 286.856,674.311 282.244,686.277C277.631,698.244 272.93,708.085 268.141,715.799C263.353,723.512 259.307,728.68 256.005,731.301C255.218,731.926 254.575,732.488 254.056,732.996C253.848,732.315 253.912,732.532 253.631,731.611C252.556,728.084 251.659,723.45 250.94,717.712C250.221,711.974 249.776,704.706 249.602,695.906C249.429,687.107 249.544,677.396 249.949,666.776C250.353,656.156 251.001,645.5 251.891,634.809C252.782,624.117 253.952,615.455 255.404,608.821C256.855,602.187 256.284,597.25 253.69,594.007C251.096,590.765 248.301,590.164 245.306,592.205C242.311,594.246 240.829,596.801 240.862,599.871C240.895,602.941 240.829,606.771 240.661,611.362C240.494,615.954 240.066,621.575 239.38,628.226C238.694,634.877 237.304,643.283 235.21,653.442C233.116,663.602 230.647,674.136 227.802,685.047C224.958,695.959 221.392,706.723 217.105,717.342C212.818,727.961 209.895,735.429 208.336,739.744C206.777,744.059 204.826,748.328 202.482,752.551C202.516,762.45 206.017,763.884 212.986,756.855C214.28,752.201 215.756,747.618 217.416,743.106C219.076,738.594 221.174,730.709 223.71,719.451C226.246,708.193 228.897,697.058 231.664,686.045C234.43,675.031 236.876,664.426 239.001,654.229C241.127,644.031 242.989,635.655 244.585,629.101C245.131,626.86 245.624,624.922 246.126,622.935C246.367,626.499 246.52,630.389 246.577,634.632C246.722,645.337 246.586,656.012 246.171,666.656C245.756,677.3 245.469,687.051 245.309,695.91C245.148,704.769 244.941,712.156 244.687,718.074C244.434,723.991 244.163,728.786 243.872,732.459C243.582,736.131 243.868,739.965 244.731,743.961C245.595,747.957 248.625,749.511 253.821,748.621C259.017,747.732 262.85,744.778 265.317,739.761C267.785,734.744 270.768,727.863 274.266,719.116C277.765,710.37 281.59,699.873 285.745,687.627C289.899,675.382 294.204,662.075 298.657,647.706C303.11,633.337 307.209,619.601 310.954,606.496C314.698,593.391 317.818,582.069 320.315,572.53C322.812,562.99 324.889,555.08 326.546,548.801C328.203,542.522 329.633,537.27 330.836,533.045C332.04,528.82 333.005,525.077 333.731,521.82C331.994,518.789 330.106,517.246 328.069,517.191L328.069,517.191Z" style="fill:white;fill-rule:nonzero;stroke:white;stroke-width:5.3px;"/>
        </g>
    </g>
    <g id="Calque2">
    </g>
</svg>
