<?xml version="1.0" encoding="UTF-8" standalone="no"?>
<!DOCTYPE svg PUBLIC "-//W3C//DTD SVG 20010904//EN" "http://www.w3.org/TR/2001/REC-SVG-20010904/DTD/svg10.dtd">
<svg version="1.0" xmlns="http://www.w3.org/2000/svg" width="128.000000pt" height="128.000000pt" viewBox="0 0 128.000000 128.000000" preserveAspectRatio="xMidYMid meet">
<metadata>
Schoewilliam logo.
</metadata>
<g transform="translate(0.000000,128.000000) scale(0.100000,-0.100000)" fill="#333333" stroke="none">
<path d="M303 821 c-46 -21 -63 -45 -63 -88 0 -44 20 -63 111 -107 65 -32 86 -47 93 -68 32 -92 -93 -159 -199 -108 -48 23 -72 20 -39 -5 23 -18 80 -35 114 -35 121 0 192 108 125 189 -14 16 -36 33 -48 37 -115 34 -153 75 -123 132 16 32 59 52 108 52 25 0 28 -3 23 -20 -5 -17 -2 -20 23 -20 l28 0 38 -157 c20 -87 36 -166 36 -175 0 -13 8 -18 28 -18 26 0 30 6 64 98 20 53 39 112 43 130 3 17 10 32 14 32 4 0 21 -57 37 -127 26 -113 32 -128 51 -131 17 -2 29 7 49 39 54 87 117 230 122 278 4 44 2 51 -21 66 -28 18 -67 13 -67 -9 0 -8 6 -31 14 -53 13 -37 12 -46 -8 -104 -13 -35 -31 -80 -41 -99 -22 -42 -21 -45 -60 130 -16 69 -31 128 -34 132 -14 16 -51 -5 -60 -36 -5 -17 -24 -77 -41 -134 -18 -57 -34 -101 -38 -98 -3 3 -19 68 -37 143 l-32 138 -39 2 c-21 1 -59 4 -84 7 -34 5 -56 2 -87 -13z"/>
</g>
</svg>